<svg width="110" height="110" viewBox="0 0 110 110" fill="none" xmlns="http://www.w3.org/2000/svg">
<path fill-rule="evenodd" clip-rule="evenodd" d="M26.2582 8.11031C34.908 2.80787 44.8557 0.000966158 55.0013 9.12055e-09C58.9083 -7.0825e-05 62.8043 0.412455 66.6246 1.23072V16.5062H55.6462C50.762 16.5062 46.0778 18.4459 42.6234 21.8988C39.169 25.3517 37.2274 30.0351 37.2253 34.9192V107.076C29.2733 104.352 22.0503 99.8444 16.1096 93.8973C15.9802 93.7585 15.8535 93.6283 15.7242 93.4981C13.8428 91.5783 12.1024 89.5247 10.5167 87.3541C4.55034 79.1482 0.969733 69.4521 0.170827 59.338C-0.628084 49.2239 1.38582 39.0858 5.98981 30.045C10.5938 21.0041 17.6086 13.4127 26.2582 8.11031ZM94.2868 16.5095C96.1667 18.4292 97.9043 20.4829 99.4865 22.6544V22.651C105.454 30.8562 109.036 40.5523 109.836 50.6668C110.635 60.7812 108.621 70.9197 104.017 79.9607C99.4128 89.0013 92.3973 96.5931 83.7464 101.894C75.0956 107.196 65.147 110.001 55.001 110C51.0937 110 47.1973 109.589 43.376 108.774V93.498H54.3544C56.7729 93.498 59.1678 93.0216 61.4022 92.0964C63.6367 91.1711 65.6669 89.8146 67.3771 88.1039C69.0873 86.394 70.4437 84.3637 71.3692 82.1293C72.2947 79.8949 72.771 77.5 72.7709 75.0815V2.93172C80.7256 5.65198 87.9509 10.1591 93.8927 16.1068C93.9596 16.1741 94.0248 16.2412 94.0899 16.3083C94.155 16.3753 94.22 16.4423 94.2868 16.5095Z" fill="#648286"/>
</svg>
